<svg width="60" height="60" viewBox="0 0 60 60" fill="none" xmlns="http://www.w3.org/2000/svg">
<path d="M12.5 52.5C11.125 52.5 9.94833 52.0108 8.97 51.0325C7.99167 50.0542 7.50167 48.8767 7.5 47.5V12.5C7.5 11.125 7.99 9.94833 8.97 8.97C9.95 7.99167 11.1267 7.50167 12.5 7.5H47.5C48.875 7.5 50.0525 7.99 51.0325 8.97C52.0125 9.95 52.5017 11.1267 52.5 12.5V18.75H47.5V12.5H12.5V47.5H47.5V41.25H52.5V47.5C52.5 48.875 52.0108 50.0525 51.0325 51.0325C50.0542 52.0125 48.8767 52.5017 47.5 52.5H12.5ZM32.5 42.5C31.125 42.5 29.9483 42.0108 28.97 41.0325C27.9917 40.0542 27.5017 38.8767 27.5 37.5V22.5C27.5 21.125 27.99 19.9483 28.97 18.97C29.95 17.9917 31.1267 17.5017 32.5 17.5H50C51.375 17.5 52.5525 17.99 53.5325 18.97C54.5125 19.95 55.0017 21.1267 55 22.5V37.5C55 38.875 54.5108 40.0525 53.5325 41.0325C52.5542 42.0125 51.3767 42.5017 50 42.5H32.5ZM50 37.5V22.5H32.5V37.5H50ZM40 33.75C41.0417 33.75 41.9275 33.3858 42.6575 32.6575C43.3875 31.9292 43.7517 31.0433 43.75 30C43.7483 28.9567 43.3842 28.0717 42.6575 27.345C41.9308 26.6183 41.045 26.2533 40 26.25C38.955 26.2467 38.07 26.6117 37.345 27.345C36.62 28.0783 36.255 28.9633 36.25 30C36.245 31.0367 36.61 31.9225 37.345 32.6575C38.08 33.3925 38.965 33.7567 40 33.75Z" fill="#5B79F7"/>
</svg>
