<svg width="60" height="60" viewBox="0 0 60 60" fill="none" xmlns="http://www.w3.org/2000/svg">
<path d="M10 50C8.625 50 7.44833 49.5108 6.47 48.5325C5.49167 47.5542 5.00167 46.3767 5 45V15C5 13.625 5.49 12.4483 6.47 11.47C7.45 10.4917 8.62667 10.0017 10 10H22.9375C23.6042 10 24.24 10.125 24.845 10.375C25.45 10.625 25.9808 10.9792 26.4375 11.4375L30 15H50C51.375 15 52.5525 15.49 53.5325 16.47C54.5125 17.45 55.0017 18.6267 55 20V25C55 25.7083 54.76 26.3025 54.28 26.7825C53.8 27.2625 53.2067 27.5017 52.5 27.5C51.7933 27.4983 51.2 27.2583 50.72 26.78C50.24 26.3017 50 25.7083 50 25V20H27.9375L22.9375 15H10V45H27.5C28.2083 45 28.8025 45.24 29.2825 45.72C29.7625 46.2 30.0017 46.7933 30 47.5C29.9983 48.2067 29.7583 48.8008 29.28 49.2825C28.8017 49.7642 28.2083 50.0033 27.5 50H10ZM35 52.5V48.375C35 48.0417 35.0625 47.7192 35.1875 47.4075C35.3125 47.0958 35.5 46.8142 35.75 46.5625L48.8125 33.5625C49.1875 33.1875 49.6042 32.9167 50.0625 32.75C50.5208 32.5833 50.9792 32.5 51.4375 32.5C51.9375 32.5 52.4167 32.5942 52.875 32.7825C53.3333 32.9708 53.75 33.2517 54.125 33.625L56.4375 35.9375C56.7708 36.3125 57.0317 36.7292 57.22 37.1875C57.4083 37.6458 57.5017 38.1042 57.5 38.5625C57.4983 39.0208 57.415 39.49 57.25 39.97C57.085 40.45 56.8142 40.8767 56.4375 41.25L43.4375 54.25C43.1875 54.5 42.9067 54.6875 42.595 54.8125C42.2833 54.9375 41.96 55 41.625 55H37.5C36.7917 55 36.1983 54.7608 35.72 54.2825C35.2417 53.8042 35.0017 53.21 35 52.5ZM38.75 51.25H41.125L48.6875 43.625L47.5625 42.4375L46.375 41.3125L38.75 48.875V51.25ZM47.5625 42.4375L46.375 41.3125L48.6875 43.625L47.5625 42.4375Z" fill="#595959"/>
</svg>
