<svg width="60" height="60" viewBox="0 0 60 60" fill="none" xmlns="http://www.w3.org/2000/svg">
<path d="M12.5 55C11.125 55 9.94833 54.5108 8.97 53.5325C7.99167 52.5542 7.50167 51.3767 7.5 50V15C7.5 13.625 7.99 12.4483 8.97 11.47C9.95 10.4917 11.1267 10.0017 12.5 10H15V7.50001C15 6.79168 15.24 6.19834 15.72 5.72001C16.2 5.24168 16.7933 5.00168 17.5 5.00001C18.2067 4.99834 18.8008 5.23834 19.2825 5.72001C19.7642 6.20168 20.0033 6.79501 20 7.50001V10H40V7.50001C40 6.79168 40.24 6.19834 40.72 5.72001C41.2 5.24168 41.7933 5.00168 42.5 5.00001C43.2067 4.99834 43.8008 5.23834 44.2825 5.72001C44.7642 6.20168 45.0033 6.79501 45 7.50001V10H47.5C48.875 10 50.0525 10.49 51.0325 11.47C52.0125 12.45 52.5017 13.6267 52.5 15V50C52.5 51.375 52.0108 52.5525 51.0325 53.5325C50.0542 54.5125 48.8767 55.0017 47.5 55H12.5ZM12.5 50H47.5V25H12.5V50ZM12.5 20H47.5V15H12.5V20ZM30 35C29.2917 35 28.6983 34.76 28.22 34.28C27.7417 33.8 27.5017 33.2067 27.5 32.5C27.4983 31.7933 27.7383 31.2 28.22 30.72C28.7017 30.24 29.295 30 30 30C30.705 30 31.2992 30.24 31.7825 30.72C32.2658 31.2 32.505 31.7933 32.5 32.5C32.495 33.2067 32.255 33.8008 31.78 34.2825C31.305 34.7642 30.7117 35.0033 30 35ZM20 35C19.2917 35 18.6983 34.76 18.22 34.28C17.7417 33.8 17.5017 33.2067 17.5 32.5C17.4983 31.7933 17.7383 31.2 18.22 30.72C18.7017 30.24 19.295 30 20 30C20.705 30 21.2992 30.24 21.7825 30.72C22.2658 31.2 22.505 31.7933 22.5 32.5C22.495 33.2067 22.255 33.8008 21.78 34.2825C21.305 34.7642 20.7117 35.0033 20 35ZM40 35C39.2917 35 38.6983 34.76 38.22 34.28C37.7417 33.8 37.5017 33.2067 37.5 32.5C37.4983 31.7933 37.7383 31.2 38.22 30.72C38.7017 30.24 39.295 30 40 30C40.705 30 41.2992 30.24 41.7825 30.72C42.2658 31.2 42.505 31.7933 42.5 32.5C42.495 33.2067 42.255 33.8008 41.78 34.2825C41.305 34.7642 40.7117 35.0033 40 35ZM30 45C29.2917 45 28.6983 44.76 28.22 44.28C27.7417 43.8 27.5017 43.2067 27.5 42.5C27.4983 41.7933 27.7383 41.2 28.22 40.72C28.7017 40.24 29.295 40 30 40C30.705 40 31.2992 40.24 31.7825 40.72C32.2658 41.2 32.505 41.7933 32.5 42.5C32.495 43.2067 32.255 43.8008 31.78 44.2825C31.305 44.7642 30.7117 45.0033 30 45ZM20 45C19.2917 45 18.6983 44.76 18.22 44.28C17.7417 43.8 17.5017 43.2067 17.5 42.5C17.4983 41.7933 17.7383 41.2 18.22 40.72C18.7017 40.24 19.295 40 20 40C20.705 40 21.2992 40.24 21.7825 40.72C22.2658 41.2 22.505 41.7933 22.5 42.5C22.495 43.2067 22.255 43.8008 21.78 44.2825C21.305 44.7642 20.7117 45.0033 20 45ZM40 45C39.2917 45 38.6983 44.76 38.22 44.28C37.7417 43.8 37.5017 43.2067 37.5 42.5C37.4983 41.7933 37.7383 41.2 38.22 40.72C38.7017 40.24 39.295 40 40 40C40.705 40 41.2992 40.24 41.7825 40.72C42.2658 41.2 42.505 41.7933 42.5 42.5C42.495 43.2067 42.255 43.8008 41.78 44.2825C41.305 44.7642 40.7117 45.0033 40 45Z" fill="#848484"/>
</svg>
