<svg width="50" height="50" viewBox="0 0 50 50" fill="none" xmlns="http://www.w3.org/2000/svg">
<path d="M6.25 45.8333C5.10417 45.8333 4.12361 45.4257 3.30833 44.6104C2.49305 43.7951 2.08472 42.8139 2.08333 41.6666V18.75H6.25V41.6666H41.6667V45.8333H6.25ZM14.5833 37.5C13.4375 37.5 12.4569 37.0923 11.6417 36.2771C10.8264 35.4618 10.4181 34.4805 10.4167 33.3333V10.4166H20.8333V6.24998C20.8333 5.10415 21.2417 4.12359 22.0583 3.30831C22.875 2.49304 23.8556 2.0847 25 2.08331H33.3333C34.4792 2.08331 35.4604 2.49165 36.2771 3.30831C37.0937 4.12498 37.5014 5.10554 37.5 6.24998V10.4166H47.9167V33.3333C47.9167 34.4791 47.509 35.4604 46.6937 36.2771C45.8785 37.0937 44.8972 37.5014 43.75 37.5H14.5833ZM14.5833 33.3333H43.75V14.5833H14.5833V33.3333ZM25 10.4166H33.3333V6.24998H25V10.4166Z" fill="#595959"/>
</svg>
