<svg width="60" height="60" viewBox="0 0 60 60" fill="none" xmlns="http://www.w3.org/2000/svg">
<path d="M12.5 40H17.5C17.5 38.625 17.0108 37.4483 16.0325 36.47C15.0542 35.4917 13.8767 35.0017 12.5 35V40ZM21.375 40H25C25 36.5417 23.7808 33.5942 21.3425 31.1575C18.9042 28.7208 15.9567 27.5017 12.5 27.5V31.125C14.9583 31.125 17.0525 31.99 18.7825 33.72C20.5125 35.45 21.3767 37.5433 21.375 40ZM28.875 40H32.5C32.5 37.25 31.9792 34.6558 30.9375 32.2175C29.8958 29.7792 28.4683 27.6542 26.655 25.8425C24.8417 24.0308 22.7167 22.6042 20.28 21.5625C17.8433 20.5208 15.25 20 12.5 20V23.625C17.0417 23.625 20.9067 25.2192 24.095 28.4075C27.2833 31.5958 28.8767 35.46 28.875 40ZM20 52.5V47.5H10C8.625 47.5 7.44833 47.0108 6.47 46.0325C5.49167 45.0542 5.00167 43.8767 5 42.5V12.5C5 11.125 5.49 9.94833 6.47 8.97C7.45 7.99167 8.62667 7.50167 10 7.5H50C51.375 7.5 52.5525 7.99 53.5325 8.97C54.5125 9.95 55.0017 11.1267 55 12.5V42.5C55 43.875 54.5108 45.0525 53.5325 46.0325C52.5542 47.0125 51.3767 47.5017 50 47.5H40V52.5H20ZM10 42.5H50V12.5H10V42.5Z" fill="#5B79F7"/>
</svg>
