<svg width="50" height="50" viewBox="0 0 50 50" fill="none" xmlns="http://www.w3.org/2000/svg">
<path d="M25 45.8334C22.1181 45.8334 19.4097 45.2861 16.875 44.1917C14.3403 43.0972 12.1354 41.6132 10.2604 39.7396C8.38542 37.866 6.90139 35.6611 5.80833 33.125C4.71528 30.5889 4.16806 27.8806 4.16667 25C4.16528 22.1195 4.7125 19.4111 5.80833 16.875C6.90417 14.3389 8.38819 12.134 10.2604 10.2604C12.1326 8.38683 14.3375 6.9028 16.875 5.80835C19.4125 4.71391 22.1208 4.16669 25 4.16669C27.8792 4.16669 30.5875 4.71391 33.125 5.80835C35.6625 6.9028 37.8674 8.38683 39.7396 10.2604C41.6118 12.134 43.0965 14.3389 44.1937 16.875C45.291 19.4111 45.8375 22.1195 45.8333 25V28.0209C45.8333 30.0695 45.1306 31.8146 43.725 33.2563C42.3194 34.6979 40.5917 35.4181 38.5417 35.4167C37.3264 35.4167 36.1806 35.1563 35.1042 34.6354C34.0278 34.1146 33.125 33.3681 32.3958 32.3959C31.3889 33.4028 30.2514 34.1584 28.9833 34.6625C27.7153 35.1667 26.3875 35.4181 25 35.4167C22.1181 35.4167 19.6618 34.4007 17.6313 32.3688C15.6007 30.3368 14.5847 27.8806 14.5833 25C14.5819 22.1195 15.5979 19.6632 17.6313 17.6313C19.6646 15.5993 22.1208 14.5834 25 14.5834C27.8792 14.5834 30.3361 15.5993 32.3708 17.6313C34.4056 19.6632 35.4208 22.1195 35.4167 25V28.0209C35.4167 28.9236 35.7118 29.6875 36.3021 30.3125C36.8924 30.9375 37.6389 31.25 38.5417 31.25C39.4444 31.25 40.191 30.9375 40.7812 30.3125C41.3715 29.6875 41.6667 28.9236 41.6667 28.0209V25C41.6667 20.3472 40.0521 16.4063 36.8229 13.1771C33.5937 9.94794 29.6528 8.33335 25 8.33335C20.3472 8.33335 16.4062 9.94794 13.1771 13.1771C9.94792 16.4063 8.33333 20.3472 8.33333 25C8.33333 29.6528 9.94792 33.5938 13.1771 36.8229C16.4062 40.0521 20.3472 41.6667 25 41.6667H35.4167V45.8334H25ZM25 31.25C26.7361 31.25 28.2118 30.6424 29.4271 29.4271C30.6424 28.2118 31.25 26.7361 31.25 25C31.25 23.2639 30.6424 21.7882 29.4271 20.5729C28.2118 19.3577 26.7361 18.75 25 18.75C23.2639 18.75 21.7882 19.3577 20.5729 20.5729C19.3576 21.7882 18.75 23.2639 18.75 25C18.75 26.7361 19.3576 28.2118 20.5729 29.4271C21.7882 30.6424 23.2639 31.25 25 31.25Z" fill="#595959"/>
</svg>
