<svg width="60" height="60" viewBox="0 0 60 60" fill="none" xmlns="http://www.w3.org/2000/svg">
<path d="M22.5 32.5H37.5C38.2083 32.5 38.8025 32.26 39.2825 31.78C39.7625 31.3 40.0017 30.7067 40 30C39.9983 29.2933 39.7583 28.7 39.28 28.22C38.8017 27.74 38.2083 27.5 37.5 27.5H22.5C21.7917 27.5 21.1983 27.74 20.72 28.22C20.2417 28.7 20.0017 29.2933 20 30C19.9983 30.7067 20.2383 31.3008 20.72 31.7825C21.2017 32.2642 21.795 32.5033 22.5 32.5ZM22.5 40H37.5C38.2083 40 38.8025 39.76 39.2825 39.28C39.7625 38.8 40.0017 38.2067 40 37.5C39.9983 36.7933 39.7583 36.2 39.28 35.72C38.8017 35.24 38.2083 35 37.5 35H22.5C21.7917 35 21.1983 35.24 20.72 35.72C20.2417 36.2 20.0017 36.7933 20 37.5C19.9983 38.2067 20.2383 38.8008 20.72 39.2825C21.2017 39.7642 21.795 40.0033 22.5 40ZM22.5 47.5H30C30.7083 47.5 31.3025 47.26 31.7825 46.78C32.2625 46.3 32.5017 45.7067 32.5 45C32.4983 44.2933 32.2583 43.7 31.78 43.22C31.3017 42.74 30.7083 42.5 30 42.5H22.5C21.7917 42.5 21.1983 42.74 20.72 43.22C20.2417 43.7 20.0017 44.2933 20 45C19.9983 45.7067 20.2383 46.3008 20.72 46.7825C21.2017 47.2642 21.795 47.5033 22.5 47.5ZM15 55C13.625 55 12.4483 54.5108 11.47 53.5325C10.4917 52.5542 10.0017 51.3767 10 50V10C10 8.625 10.49 7.44833 11.47 6.47C12.45 5.49167 13.6267 5.00167 15 5H32.9375C33.6042 5 34.24 5.125 34.845 5.375C35.45 5.625 35.9808 5.97917 36.4375 6.4375L48.5625 18.5625C49.0208 19.0208 49.375 19.5525 49.625 20.1575C49.875 20.7625 50 21.3975 50 22.0625V50C50 51.375 49.5108 52.5525 48.5325 53.5325C47.5542 54.5125 46.3767 55.0017 45 55H15ZM45 22.5H36.25C35.2083 22.5 34.3233 22.1358 33.595 21.4075C32.8667 20.6792 32.5017 19.7933 32.5 18.75V10H15V50H45V22.5Z" fill="#595959"/>
</svg>
