<svg width="50" height="50" viewBox="0 0 50 50" fill="none" xmlns="http://www.w3.org/2000/svg">
<path d="M45.8333 12.5V37.5C45.8333 38.6458 45.4257 39.6271 44.6104 40.4438C43.7951 41.2604 42.8139 41.6681 41.6667 41.6667H8.33333C7.1875 41.6667 6.20695 41.259 5.39167 40.4438C4.57639 39.6285 4.16806 38.6472 4.16667 37.5V12.5C4.16667 11.3542 4.575 10.3736 5.39167 9.55834C6.20833 8.74307 7.18889 8.33473 8.33333 8.33334H41.6667C42.8125 8.33334 43.7938 8.74168 44.6104 9.55834C45.4271 10.375 45.8347 11.3556 45.8333 12.5ZM8.33333 16.6667H41.6667V12.5H8.33333V16.6667ZM8.33333 25V37.5H41.6667V25H8.33333Z" fill="#595959"/>
</svg>
